<svg xmlns="http://www.w3.org/2000/svg" width="144" height="185.04" viewBox="0 0 144 185.04">
  <g id="CC_Desktop_Header_Logo" data-name="CC Desktop Header Logo" transform="translate(-36 -33.48)">
    <rect id="Rectangle_1878" data-name="Rectangle 1878" width="135.78" height="185.04" transform="translate(36 33.48)" fill="#f36c31"/>
    <g id="Group_4654" data-name="Group 4654">
      <path id="Path_3704" data-name="Path 3704" d="M105.29,126.92a10.949,10.949,0,0,0-.79-3.34,6.1,6.1,0,0,0-3.76-3.57c-.28-.1-.45-.06-.55.23-.24.73-.54,1.45-.72,2.19a10.94,10.94,0,0,0,.23,5.33,13.705,13.705,0,0,1,.44,3.08,10.645,10.645,0,0,1,5.15-3.92" fill="#fff"/>
      <path id="Path_3705" data-name="Path 3705" d="M98.65,127.92a12.687,12.687,0,0,1,.18-7.71c.06-.18.1-.47.01-.56a.729.729,0,0,0-.57-.04,6.167,6.167,0,0,0-4.01,3.17,10.526,10.526,0,0,0-1.08,7.11,7.7,7.7,0,0,0,1.29,3.16,6.241,6.241,0,0,0,1.61,1.55,7.282,7.282,0,0,0,.94.53c.37.17.86.47,1.08-.04.14-.32.27-.64.37-.95a6.768,6.768,0,0,1,.44-1.8,10.384,10.384,0,0,0-.26-4.42" fill="#fff"/>
      <g id="Group_4653" data-name="Group 4653">
        <path id="Path_3706" data-name="Path 3706" d="M111.61,138.22a7.767,7.767,0,0,0,3.15-6.83,2.564,2.564,0,0,0-.15-.87.4.4,0,0,0-.29-.14,3.085,3.085,0,0,0-.85.44c-2.66,1.7-5.32,3.43-8.01,5.08-.18.15-.37.29-.56.43-.22.26-.16.53.15.91.12.16.19.36.32.51.51.6.32.96-.31,1.33-1.54.92-1.52.95-2.47-.6l-.37-.58c-.29.23-.52.44-.77.6-.86.53-.87.86,0,1.36a4.37,4.37,0,0,0,.55.24C105.6,141.57,108.77,140.54,111.61,138.22Z" fill="#fff" fill-rule="evenodd"/>
        <path id="Path_3707" data-name="Path 3707" d="M113.52,128.72a15.4,15.4,0,0,0-2.31-1.13,8.661,8.661,0,0,0-2.31-.36,11.468,11.468,0,0,0-5.09,1.56c-.28.18-.56.37-.83.58-2.38,1.8-3.94,4.11-3.66,7.28a6.343,6.343,0,0,0,.28,1.01,8.92,8.92,0,0,0,1.06-.4c.6-.31.51-.69.17-1.22-.87-1.32-.84-1.34.52-2.18.03-.02.06-.03.09-.05.6-.48,1.05-.45,1.43.3a9.584,9.584,0,0,0,.87,1.2c3.33-2.12,6.55-4.16,9.77-6.2C113.52,128.97,113.52,128.84,113.52,128.72Z" fill="#fff" fill-rule="evenodd"/>
      </g>
    </g>
    <g id="Group_4655" data-name="Group 4655">
      <path id="Path_3708" data-name="Path 3708" d="M54.73,164.4c0-.41-.18-.59-.59-.58-.7.01-1.4.03-2.1-.01-.48-.02-.63.18-.63.63q.015,2,0,3.99a5.519,5.519,0,0,1-.05.71,1.066,1.066,0,0,1-.76.88,1.046,1.046,0,0,1-1.22-.26,1.857,1.857,0,0,1-.39-1.05c-.02-3.45-.01-7.94-.01-11.39,0-2.01,0-4.55.01-6.56a1.884,1.884,0,0,1,.39-1.05,1.184,1.184,0,0,1,1.98.62,4.314,4.314,0,0,1,.05.71c.01,1.33.01,3.18,0,4.51,0,.45.15.65.63.63.7-.03,1.4-.02,2.1-.01.41.01.59-.17.59-.58-.01-1.62.07-3.77-.03-5.38a4.25,4.25,0,0,0-3.93-4.17,7.121,7.121,0,0,0-2.21.19,3.679,3.679,0,0,0-2.62,3.2,10.585,10.585,0,0,0-.2,2.03c0,1.17,0,2.87-.01,4.04h-.01v3.79h0c0,2.55,0,6.15.01,8.7a10.664,10.664,0,0,0,.2,2.03,3.679,3.679,0,0,0,2.62,3.2,7.121,7.121,0,0,0,2.21.19,4.244,4.244,0,0,0,3.93-4.17C54.81,167.65,54.73,166.02,54.73,164.4Z" fill="#fff" fill-rule="evenodd"/>
      <path id="Path_3709" data-name="Path 3709" d="M66.32,164.4a.711.711,0,0,0-.03-.21V159.3h0v-3.54a.777.777,0,0,0,.02-.16c-.01-1.62.07-3.77-.03-5.38a4.958,4.958,0,0,0-.66-2.17,3.251,3.251,0,0,0-2.17-1.81c-.14-.04-.28-.06-.42-.09a4.837,4.837,0,0,0-.68-.1c-.18-.01-.36-.02-.55-.02h-.02c-.19,0-.37.01-.55.02a3.713,3.713,0,0,0-.68.1c-.14.03-.28.05-.42.09a3.255,3.255,0,0,0-2.16,1.81,4.881,4.881,0,0,0-.66,2.17c-.1,1.61-.02,3.76-.03,5.38,0,.06.02,1.55.02,2.25v1.45h0c0,1.43-.03,5.02-.03,5.1.01,1.62-.07,3.24.03,4.85a5.111,5.111,0,0,0,.67,2.18,3.268,3.268,0,0,0,2.16,1.8c.11.03.22.05.33.07a4.591,4.591,0,0,0,.77.12c.18.01.37.02.56.02s.37-.01.56-.02a4.593,4.593,0,0,0,.77-.12c.11-.02.22-.04.33-.07a3.242,3.242,0,0,0,2.16-1.8,4.848,4.848,0,0,0,.67-2.18C66.39,167.65,66.31,166.02,66.32,164.4Zm-3.32.04q.015,2,0,3.99a5.519,5.519,0,0,1-.05.71c-.01.05-.03.09-.04.13a1.792,1.792,0,0,1-.25.45,1.169,1.169,0,0,1-.48.29,1.845,1.845,0,0,1-.38.08,1.605,1.605,0,0,1-.38-.08,1.169,1.169,0,0,1-.48-.29,1.764,1.764,0,0,1-.24-.45c-.01-.05-.03-.08-.04-.13a4.166,4.166,0,0,1-.05-.71q-.015-2,0-3.99c0-.13-.04-5.07-.04-7.12,0-.48.04-1.64.04-1.76-.01-1.33-.01-3.18,0-4.51a5.519,5.519,0,0,1,.05-.71c.01-.05.03-.1.04-.14a2.064,2.064,0,0,1,.24-.44,1.306,1.306,0,0,1,.48-.3,1.845,1.845,0,0,1,.38-.08,1.605,1.605,0,0,1,.38.08,1.037,1.037,0,0,1,.48.3,2.628,2.628,0,0,1,.24.44c.01.05.03.09.04.14a4.166,4.166,0,0,1,.05.71c.01,1.33.01,3.18,0,4.51C63,155.69,63,164.32,63,164.44Z" fill="#fff" fill-rule="evenodd"/>
      <path id="Path_3710" data-name="Path 3710" d="M89.85,146.97c.02-.49-.22-.68-.67-.68H81.46c-.46,0-.69.19-.67.68.02.68.01,1.36.01,2.04,0,.79.05.84.84.84h1.88v22.68c-.01.46.18.69.68.67.68-.02,1.36-.01,2.05-.01.79,0,.84-.05.84-.84v-22.5H89c.8,0,.84-.05.84-.84C89.84,148.33,89.82,147.65,89.85,146.97Z" fill="#fff" fill-rule="evenodd"/>
      <path id="Path_3711" data-name="Path 3711" d="M140.89,146.97c.02-.49-.22-.68-.67-.68H132.5c-.46,0-.69.19-.67.68.02.68.01,1.36.01,2.04,0,.79.05.84.84.84h1.88v22.68c0,.46.19.69.68.67.68-.02,1.36-.01,2.04-.01.79,0,.84-.05.84-.84v-22.5h1.92c.79,0,.84-.05.84-.84C140.88,148.33,140.86,147.65,140.89,146.97Z" fill="#fff" fill-rule="evenodd"/>
      <path id="Path_3712" data-name="Path 3712" d="M92.36,159.46V146.98c0-.67,0-.67.69-.67.73,0,1.47.02,2.2-.01.46-.02.62.14.62.62-.02,4.63-.01,10.84-.01,15.47v10.02c0,.71-.07.78-.8.78H93.07c-.62,0-.7-.08-.7-.72C92.36,168.48,92.36,163.45,92.36,159.46Z" fill="#fff" fill-rule="evenodd"/>
      <path id="Path_3713" data-name="Path 3713" d="M78.28,147.5v-.63c.01-.4-.16-.6-.59-.58-.59.02-1.18.01-1.77.01-.68,0-.73.04-.73.73v.48h0v13.01c-.1-.12-2.39-9.36-3.47-13.61-.12-.46-.28-.67-.78-.61a9.276,9.276,0,0,1-1.18.01c-.91,0-.92.01-.92.9v23.93h0v1.47c-.01.4.16.61.6.59.6-.02,1.2-.01,1.81-.01.7,0,.74-.04.74-.74v-1.31H72V159.23a.3.3,0,0,1,.1-.02c.05.16.09.32.13.47,1.08,4.02,2.16,9.08,3.22,13.1.09.34.22.44.55.42.46-.02.92-.01,1.38-.01.87,0,.89-.02.89-.89.01-7.74.01-17.06.01-24.8Z" fill="#fff" fill-rule="evenodd"/>
      <path id="Path_3714" data-name="Path 3714" d="M107.81,147.5v-.63c.01-.4-.16-.6-.59-.58-.59.02-1.18.01-1.77.01-.68,0-.73.04-.73.73v.48h0v13.01c-.1-.12-2.39-9.36-3.47-13.61-.12-.46-.28-.67-.78-.61a9.276,9.276,0,0,1-1.18.01c-.91,0-.92.01-.92.9v23.93h0v1.47c-.01.4.16.61.6.59.6-.02,1.2-.01,1.81-.01.7,0,.74-.04.74-.74v-1.31h.01V159.23a.3.3,0,0,1,.1-.02c.05.16.09.32.13.47,1.08,4.02,2.16,9.08,3.22,13.1.09.34.22.44.55.42.46-.02.92-.01,1.38-.01.87,0,.89-.02.89-.89.01-7.74.01-17.06.01-24.8Z" fill="#fff" fill-rule="evenodd"/>
      <path id="Path_3715" data-name="Path 3715" d="M129.36,147.5v-.63c.01-.4-.16-.6-.59-.58-.59.02-1.18.01-1.77.01-.68,0-.73.04-.73.73v.48h0v13.01c-.1-.12-2.39-9.36-3.47-13.61-.11-.46-.28-.67-.78-.61a9.136,9.136,0,0,1-1.17.01c-.91,0-.92.01-.92.9v23.93h0v1.47c-.01.4.16.61.6.59.6-.02,1.2-.01,1.81-.01.7,0,.74-.04.74-.74v-1.31h.01V159.23a.355.355,0,0,1,.1-.02c.04.16.09.32.13.47,1.08,4.02,2.16,9.08,3.22,13.1.09.34.22.44.55.42.46-.02.92-.01,1.38-.01.87,0,.89-.02.89-.89V147.5Z" fill="#fff" fill-rule="evenodd"/>
      <path id="Path_3716" data-name="Path 3716" d="M117.41,170.46c0-.79-.05-.84-.84-.84h-2.72a.826.826,0,0,1-.03-.24c.02-2.27.01-4.53.01-6.8,0-.12.01-1.3.02-1.46h2.44c.46,0,.69-.19.67-.68-.02-.68-.01-1.36-.01-2.04,0-.79-.05-.84-.84-.84h-2.25a.636.636,0,0,1-.03-.15c0-2.35,0-5.22-.01-7.56h2.92c.46,0,.69-.18.67-.68-.02-.68-.01-1.36-.01-2.04,0-.17,0-.3-.01-.4-.01-.32-.13-.43-.49-.43h-4.29v.01c-.56,0-1.13,0-1.69-.01-.48-.01-.61.18-.61.62.01,7.99.01,17.55.01,25.55,0,.64.09.72.75.72h5.67c.46.01.69-.18.67-.68C117.39,171.83,117.41,171.15,117.41,170.46Z" fill="#fff" fill-rule="evenodd"/>
      <path id="Path_3717" data-name="Path 3717" d="M162.03,170.47c0-.79-.05-.84-.84-.84h-2.72a.681.681,0,0,1-.02-.15v-1.5h0V151.62c0-1.55-.02-3.1.01-4.65.01-.5-.13-.71-.66-.68-.71.04-1.43.01-2.14.01s-.7.01-.7.72v20.96h0v4.48c0,.64.09.72.75.72h5.67c.46,0,.69-.19.67-.68C162.02,171.83,162.04,171.15,162.03,170.47Z" fill="#fff" fill-rule="evenodd"/>
      <path id="Path_3718" data-name="Path 3718" d="M150.7,173.18c-.41,0-.82-.02-1.23.01a.5.5,0,0,1-.6-.47c-.17-.94-.35-2.92-.49-3.86-.05-.32-.15-.43-.47-.43q-1.23.03-2.46,0c-.29,0-.43.07-.47.38-.12.94-.28,2.93-.41,3.87-.05.35-.2.51-.57.5-.75-.02-1.5-.04-2.25.01-.52.03-.62-.18-.55-.63.16-.99.3-1.98.44-2.98.43-2.91.86-6.87,1.29-9.78.4-2.67.79-5.87,1.19-8.54.21-1.45.44-2.89.63-4.34.06-.45.27-.63.69-.63.78,0,1.57.01,2.35-.01a.59.59,0,0,1,.68.58c.29,1.79.6,3.59.9,5.38.57,3.42,1.13,8.41,1.69,11.83l1.38,8.4c.1.61.03.68-.58.69C151.49,173.18,151.1,173.18,150.7,173.18Zm-2.97-8.82c-.08-.64-.14-1.26-.2-1.88l-.89-7.05-.9,7.05c-.07.73-.15,1.46-.23,2.19-.04.36.06.54.46.51.36-.03.71-.01,1.07-.01C147.82,165.18,147.82,165.14,147.73,164.36Z" fill="#fff" fill-rule="evenodd"/>
    </g>
    <g id="Group_4656" data-name="Group 4656">
      <path id="Path_3719" data-name="Path 3719" d="M83.27,196.85c0-.41-.18-.59-.59-.58-.7.01-1.4.03-2.1-.01-.48-.02-.63.18-.63.63q.015,2,0,3.99a5.518,5.518,0,0,1-.05.71,1.066,1.066,0,0,1-.76.88,1.046,1.046,0,0,1-1.22-.26,1.857,1.857,0,0,1-.39-1.05c-.02-3.45-.01-7.94-.01-11.39,0-2.01,0-4.55.01-6.56a1.884,1.884,0,0,1,.39-1.05,1.184,1.184,0,0,1,1.98.62,4.166,4.166,0,0,1,.05.71c.01,1.33.01,3.18,0,4.51,0,.45.15.65.63.63.7-.03,1.4-.02,2.1-.01.41.01.59-.17.59-.58-.01-1.62.07-3.77-.03-5.38a4.25,4.25,0,0,0-3.93-4.17,7.121,7.121,0,0,0-2.21.19,3.679,3.679,0,0,0-2.62,3.2,10.585,10.585,0,0,0-.2,2.03c0,1.17,0,2.87-.01,4.04h-.01v3.79h0c0,2.55,0,6.15.01,8.7a10.665,10.665,0,0,0,.2,2.03,3.679,3.679,0,0,0,2.62,3.2,7.121,7.121,0,0,0,2.21.19,4.244,4.244,0,0,0,3.93-4.17C83.34,200.09,83.26,198.46,83.27,196.85Z" fill="#fff" fill-rule="evenodd"/>
      <path id="Path_3720" data-name="Path 3720" d="M123.75,202.9c0-.79-.05-.84-.84-.84h-2.72a.826.826,0,0,1-.03-.24c.02-2.27.01-5.58.01-7.85,0-.12.01-.25.02-.41h2.44c.46.01.69-.18.67-.68-.02-.68-.01-1.36-.01-2.04,0-.79-.05-.84-.84-.84H120.2a.636.636,0,0,1-.03-.15c0-2.35,0-5.22-.01-7.56h2.92c.46.01.69-.18.67-.68-.02-.68-.01-1.36-.01-2.04a2.245,2.245,0,0,0-.02-.4c-.01-.33-.13-.43-.49-.43h-4.29v.01c-.56,0-1.13,0-1.69-.01-.48-.01-.61.18-.61.62.01,7.99.01,17.55.01,25.55,0,.64.09.72.75.72h5.66c.46.01.69-.18.67-.68C123.73,204.27,123.75,203.59,123.75,202.9Z" fill="#fff" fill-rule="evenodd"/>
      <path id="Path_3721" data-name="Path 3721" d="M113.4,182.35c.46,0,.69-.19.67-.68-.02-.68-.01-1.36-.01-2.04a2.245,2.245,0,0,0-.02-.4.463.463,0,0,0-.06-.25v-.14c-.05-.02-.08-.05-.1-.05-2.17-.01-4.35-.01-6.52,0a.208.208,0,0,0-.12.05.362.362,0,0,0-.24.29.01.01,0,0,1-.01.01,1.179,1.179,0,0,0-.03.5V204.6c0,.16,0,.31.01.47a.5.5,0,0,0,.57.52c.73-.02,1.46,0,2.19-.01.66,0,.74-.09.74-.76v-5.55h.01v-5.24c0-.12.01-.25.02-.41h2.44c.46.01.69-.18.67-.68-.02-.68-.01-1.36-.01-2.04,0-.79-.05-.84-.84-.84h-2.25a.636.636,0,0,1-.03-.15c0-2.35,0-5.22-.01-7.56h2.93Z" fill="#fff" fill-rule="evenodd"/>
      <path id="Path_3722" data-name="Path 3722" d="M103.77,182.35c.46,0,.69-.18.67-.68-.02-.68-.01-1.36-.01-2.04a2.245,2.245,0,0,0-.02-.4.44.44,0,0,0-.06-.25v-.14c-.05-.02-.08-.05-.1-.05-2.17-.01-4.35-.01-6.52,0a.208.208,0,0,0-.12.05.362.362,0,0,0-.24.29l-.01.01a1.179,1.179,0,0,0-.03.5V204.6c0,.16,0,.31.01.47a.494.494,0,0,0,.57.52c.73-.02,1.46,0,2.19-.01.66,0,.74-.09.74-.76v-5.55h.01v-5.24c0-.12.01-.25.02-.41h2.44c.46,0,.69-.19.67-.68-.02-.68-.01-1.36-.01-2.04,0-.79-.05-.84-.84-.84h-2.25a.636.636,0,0,1-.03-.15c0-2.35,0-5.22-.01-7.56h2.93Z" fill="#fff" fill-rule="evenodd"/>
      <path id="Path_3723" data-name="Path 3723" d="M133.5,202.9c0-.79-.05-.84-.84-.84h-2.72a.826.826,0,0,1-.03-.24c.02-2.27.01-5.58.01-7.85,0-.12.01-.25.02-.41h2.44c.46.01.69-.18.67-.68-.02-.68-.01-1.36-.01-2.04,0-.79-.05-.84-.84-.84h-2.25c-.01-.07-.03-.12-.03-.15,0-2.35,0-5.22-.01-7.56h2.92c.46.01.69-.18.67-.68-.02-.68-.01-1.36-.01-2.04a2.244,2.244,0,0,0-.02-.4c0-.33-.13-.43-.49-.43h-4.29v.01c-.56,0-1.13,0-1.69-.01-.48-.01-.61.18-.61.62.01,7.99.01,17.55.01,25.55,0,.64.09.72.75.72h5.67c.46.01.69-.18.67-.68C133.48,204.27,133.5,203.59,133.5,202.9Z" fill="#fff" fill-rule="evenodd"/>
      <path id="Path_3724" data-name="Path 3724" d="M94.86,196.85a.711.711,0,0,0-.03-.21v-4.9h0V188.2a.777.777,0,0,0,.02-.16c-.01-1.62.07-3.77-.03-5.38a4.958,4.958,0,0,0-.66-2.17,3.251,3.251,0,0,0-2.17-1.81c-.14-.04-.28-.06-.42-.09a4.837,4.837,0,0,0-.68-.1c-.18-.01-.36-.02-.55-.02h-.02c-.19,0-.37.01-.55.02a3.713,3.713,0,0,0-.68.1c-.14.03-.28.05-.42.09a3.255,3.255,0,0,0-2.16,1.81,4.881,4.881,0,0,0-.66,2.17c-.1,1.61-.02,3.76-.03,5.38,0,.06.02,1.55.02,2.25v1.45h0c0,1.43-.03,5.02-.03,5.1.01,1.62-.07,3.24.03,4.85a5.111,5.111,0,0,0,.67,2.18,3.268,3.268,0,0,0,2.16,1.8c.11.03.22.05.33.07a4.591,4.591,0,0,0,.77.12c.18.01.37.02.56.02s.37-.01.56-.02a4.593,4.593,0,0,0,.77-.12c.11-.02.22-.04.33-.07a3.242,3.242,0,0,0,2.16-1.8,4.848,4.848,0,0,0,.67-2.18C94.93,200.09,94.85,198.46,94.86,196.85Zm-3.32.03q.015,2,0,3.99a5.518,5.518,0,0,1-.05.71c-.01.05-.03.09-.04.13a1.792,1.792,0,0,1-.25.45,1.169,1.169,0,0,1-.48.29,1.845,1.845,0,0,1-.38.08,1.605,1.605,0,0,1-.38-.08,1.169,1.169,0,0,1-.48-.29,1.764,1.764,0,0,1-.24-.45c-.01-.04-.03-.08-.04-.13a4.166,4.166,0,0,1-.05-.71q-.015-2,0-3.99c0-.12-.04-5.07-.04-7.12,0-.48.04-1.64.04-1.77-.01-1.33-.01-3.18,0-4.51a5.518,5.518,0,0,1,.05-.71c.01-.05.03-.1.04-.14a2.064,2.064,0,0,1,.24-.44,1.306,1.306,0,0,1,.48-.3,1.845,1.845,0,0,1,.38-.08,1.605,1.605,0,0,1,.38.08,1.037,1.037,0,0,1,.48.3,2.628,2.628,0,0,1,.24.44c.01.05.03.09.04.14a4.166,4.166,0,0,1,.05.71c.01,1.33.01,3.18,0,4.51C91.54,188.13,91.54,196.76,91.54,196.88Z" fill="#fff" fill-rule="evenodd"/>
    </g>
    <g id="Group_4657" data-name="Group 4657">
      <path id="Path_3725" data-name="Path 3725" d="M180,149.11a2.824,2.824,0,0,1-2.88,2.85,2.831,2.831,0,1,1,0-5.66A2.81,2.81,0,0,1,180,149.11Zm-5.06,0a2.184,2.184,0,0,0,2.19,2.25,2.151,2.151,0,0,0,2.14-2.23,2.167,2.167,0,1,0-4.33-.02Zm1.73,1.47h-.65v-2.81a5.8,5.8,0,0,1,1.08-.09,1.769,1.769,0,0,1,.98.21.788.788,0,0,1,.27.62.715.715,0,0,1-.58.65v.03a.822.822,0,0,1,.51.69,2.113,2.113,0,0,0,.21.7h-.7a2.108,2.108,0,0,1-.22-.69c-.05-.31-.22-.45-.58-.45h-.31v1.14Zm.02-1.59H177c.36,0,.65-.12.65-.41,0-.26-.19-.43-.6-.43a2.285,2.285,0,0,0-.36.03v.81Z"/>
    </g>
  </g>
</svg>
